<mxfile host="Electron" agent="Mozilla/5.0 (Windows NT 10.0; Win64; x64) AppleWebKit/537.36 (KHTML, like Gecko) draw.io/26.2.15 Chrome/134.0.6998.205 Electron/35.2.1 Safari/537.36" version="26.2.15">
  <diagram name="Page-1" id="3ZAR1wKgtJ-pRTGh530w">
    <mxGraphModel dx="273" dy="652" grid="1" gridSize="10" guides="1" tooltips="1" connect="1" arrows="1" fold="1" page="1" pageScale="1" pageWidth="827" pageHeight="1169" math="0" shadow="0">
      <root>
        <mxCell id="0" />
        <mxCell id="1" parent="0" />
        <mxCell id="HjFsh838GNkCm93z2tD4-1" value="Ειδοποιήσεις" style="shape=umlBoundary;whiteSpace=wrap;html=1;" vertex="1" parent="1">
          <mxGeometry x="140" y="460" width="100" height="80" as="geometry" />
        </mxCell>
        <mxCell id="HjFsh838GNkCm93z2tD4-16" style="edgeStyle=none;rounded=0;orthogonalLoop=1;jettySize=auto;html=1;exitX=0.5;exitY=0.5;exitDx=0;exitDy=0;exitPerimeter=0;" edge="1" parent="1" source="HjFsh838GNkCm93z2tD4-2" target="HjFsh838GNkCm93z2tD4-1">
          <mxGeometry relative="1" as="geometry" />
        </mxCell>
        <mxCell id="HjFsh838GNkCm93z2tD4-17" value="επιλέγει την ειδοπίηση" style="edgeLabel;html=1;align=center;verticalAlign=middle;resizable=0;points=[];" vertex="1" connectable="0" parent="HjFsh838GNkCm93z2tD4-16">
          <mxGeometry x="0.0734" y="4" relative="1" as="geometry">
            <mxPoint as="offset" />
          </mxGeometry>
        </mxCell>
        <mxCell id="HjFsh838GNkCm93z2tD4-22" style="edgeStyle=none;rounded=0;orthogonalLoop=1;jettySize=auto;html=1;exitX=0.5;exitY=0.5;exitDx=0;exitDy=0;exitPerimeter=0;" edge="1" parent="1" source="HjFsh838GNkCm93z2tD4-2" target="HjFsh838GNkCm93z2tD4-20">
          <mxGeometry relative="1" as="geometry" />
        </mxCell>
        <mxCell id="HjFsh838GNkCm93z2tD4-2" value="User" style="shape=umlActor;verticalLabelPosition=bottom;verticalAlign=top;html=1;" vertex="1" parent="1">
          <mxGeometry x="20" y="570" width="30" height="60" as="geometry" />
        </mxCell>
        <mxCell id="HjFsh838GNkCm93z2tD4-13" value="" style="edgeStyle=none;rounded=0;orthogonalLoop=1;jettySize=auto;html=1;" edge="1" parent="1" source="HjFsh838GNkCm93z2tD4-3" target="HjFsh838GNkCm93z2tD4-11">
          <mxGeometry relative="1" as="geometry" />
        </mxCell>
        <mxCell id="HjFsh838GNkCm93z2tD4-3" value="Εντοπίζει&lt;div&gt;events&amp;nbsp;&lt;/div&gt;&lt;div&gt;προς ενημέρωση&lt;/div&gt;" style="ellipse;shape=umlControl;whiteSpace=wrap;html=1;" vertex="1" parent="1">
          <mxGeometry x="165" y="240" width="70" height="80" as="geometry" />
        </mxCell>
        <mxCell id="HjFsh838GNkCm93z2tD4-10" style="edgeStyle=none;rounded=0;orthogonalLoop=1;jettySize=auto;html=1;" edge="1" parent="1" source="HjFsh838GNkCm93z2tD4-4" target="HjFsh838GNkCm93z2tD4-3">
          <mxGeometry relative="1" as="geometry" />
        </mxCell>
        <mxCell id="HjFsh838GNkCm93z2tD4-4" value="Αναφορές" style="ellipse;shape=umlEntity;whiteSpace=wrap;html=1;" vertex="1" parent="1">
          <mxGeometry x="260" y="130" width="80" height="80" as="geometry" />
        </mxCell>
        <mxCell id="HjFsh838GNkCm93z2tD4-9" value="" style="edgeStyle=none;rounded=0;orthogonalLoop=1;jettySize=auto;html=1;" edge="1" parent="1" source="HjFsh838GNkCm93z2tD4-5" target="HjFsh838GNkCm93z2tD4-3">
          <mxGeometry relative="1" as="geometry" />
        </mxCell>
        <mxCell id="HjFsh838GNkCm93z2tD4-5" value="Μηνύματα" style="ellipse;shape=umlEntity;whiteSpace=wrap;html=1;" vertex="1" parent="1">
          <mxGeometry x="160" y="130" width="80" height="80" as="geometry" />
        </mxCell>
        <mxCell id="HjFsh838GNkCm93z2tD4-8" style="edgeStyle=none;rounded=0;orthogonalLoop=1;jettySize=auto;html=1;" edge="1" parent="1" source="HjFsh838GNkCm93z2tD4-6" target="HjFsh838GNkCm93z2tD4-3">
          <mxGeometry relative="1" as="geometry" />
        </mxCell>
        <mxCell id="HjFsh838GNkCm93z2tD4-6" value="Αιτήματα" style="ellipse;shape=umlEntity;whiteSpace=wrap;html=1;" vertex="1" parent="1">
          <mxGeometry x="60" y="130" width="80" height="80" as="geometry" />
        </mxCell>
        <mxCell id="HjFsh838GNkCm93z2tD4-15" value="" style="edgeStyle=none;rounded=0;orthogonalLoop=1;jettySize=auto;html=1;" edge="1" parent="1" source="HjFsh838GNkCm93z2tD4-11" target="HjFsh838GNkCm93z2tD4-1">
          <mxGeometry relative="1" as="geometry" />
        </mxCell>
        <mxCell id="HjFsh838GNkCm93z2tD4-19" value="" style="edgeStyle=none;rounded=0;orthogonalLoop=1;jettySize=auto;html=1;" edge="1" parent="1" source="HjFsh838GNkCm93z2tD4-11" target="HjFsh838GNkCm93z2tD4-18">
          <mxGeometry relative="1" as="geometry" />
        </mxCell>
        <mxCell id="HjFsh838GNkCm93z2tD4-11" value="στέλνει ειδοποίηση&amp;nbsp;&lt;div&gt;στον Χρήστη&lt;/div&gt;" style="ellipse;shape=umlControl;whiteSpace=wrap;html=1;" vertex="1" parent="1">
          <mxGeometry x="165" y="340" width="70" height="80" as="geometry" />
        </mxCell>
        <mxCell id="HjFsh838GNkCm93z2tD4-21" value="" style="edgeStyle=none;rounded=0;orthogonalLoop=1;jettySize=auto;html=1;" edge="1" parent="1" source="HjFsh838GNkCm93z2tD4-18" target="HjFsh838GNkCm93z2tD4-20">
          <mxGeometry relative="1" as="geometry" />
        </mxCell>
        <mxCell id="HjFsh838GNkCm93z2tD4-18" value="Εμφάνισει&amp;nbsp;&lt;div&gt;σχετικού συμβάντος&lt;/div&gt;" style="ellipse;shape=umlControl;whiteSpace=wrap;html=1;" vertex="1" parent="1">
          <mxGeometry x="290" y="540" width="70" height="80" as="geometry" />
        </mxCell>
        <mxCell id="HjFsh838GNkCm93z2tD4-20" value="Συμβάν" style="shape=umlBoundary;whiteSpace=wrap;html=1;" vertex="1" parent="1">
          <mxGeometry x="140" y="670" width="100" height="80" as="geometry" />
        </mxCell>
      </root>
    </mxGraphModel>
  </diagram>
</mxfile>
